<svg width="24" height="27" viewBox="0 0 24 27" fill="none" xmlns="http://www.w3.org/2000/svg">
<path d="M3.42129 1.65005H15.8213C16.2324 1.65005 16.6266 1.81335 16.9173 2.10404C17.208 2.39472 17.3713 2.78897 17.3713 3.20005V10.9842C17.8957 11.0317 18.4146 11.1277 18.9213 11.2709V3.20005C18.9213 2.37788 18.5947 1.58938 18.0133 1.00802C17.432 0.426658 16.6435 0.100052 15.8213 0.100052H3.42129C2.59912 0.100052 1.81062 0.426658 1.22926 1.00802C0.647895 1.58938 0.321289 2.37788 0.321289 3.20005V21.8001C0.321289 22.6222 0.647895 23.4107 1.22926 23.9921C1.81062 24.5734 2.59912 24.9001 3.42129 24.9001H10.0196C9.62486 24.4219 9.28339 23.9022 9.00129 23.3501H3.42129C3.0102 23.3501 2.61596 23.1867 2.32527 22.8961C2.03459 22.6054 1.87129 22.2111 1.87129 21.8001H8.39214C8.24872 21.2934 8.15272 20.7745 8.10539 20.2501H1.87129V3.20005C1.87129 2.78897 2.03459 2.39472 2.32527 2.10404C2.61596 1.81335 3.0102 1.65005 3.42129 1.65005ZM4.97129 3.20005C4.5602 3.20005 4.16596 3.36336 3.87527 3.65404C3.58459 3.94472 3.42129 4.33897 3.42129 4.75005V6.30005C3.42129 6.71114 3.58459 7.10539 3.87527 7.39607C4.16596 7.68675 4.5602 7.85005 4.97129 7.85005H14.2713C14.6824 7.85005 15.0766 7.68675 15.3673 7.39607C15.658 7.10539 15.8213 6.71114 15.8213 6.30005V4.75005C15.8213 4.33897 15.658 3.94472 15.3673 3.65404C15.0766 3.36336 14.6824 3.20005 14.2713 3.20005H4.97129ZM14.2713 4.75005V6.30005H4.97129V4.75005H14.2713ZM23.5713 19.4751C23.5713 21.3249 22.8364 23.0991 21.5284 24.4071C20.2203 25.7152 18.4462 26.4501 16.5963 26.4501C14.7464 26.4501 12.9723 25.7152 11.6642 24.4071C10.3562 23.0991 9.62129 21.3249 9.62129 19.4751C9.62129 17.6252 10.3562 15.851 11.6642 14.543C12.9723 13.2349 14.7464 12.5001 16.5963 12.5001C18.4462 12.5001 20.2203 13.2349 21.5284 14.543C22.8364 15.851 23.5713 17.6252 23.5713 19.4751ZM15.8523 16.4278C15.7518 16.3587 15.635 16.3171 15.5135 16.3071C15.392 16.297 15.2699 16.3188 15.1594 16.3704C15.0693 16.4101 14.9877 16.4669 14.9192 16.5378C14.7748 16.6858 14.6941 16.8844 14.6944 17.0912V21.8574C14.6935 21.9601 14.7129 22.0621 14.7514 22.1573C14.79 22.2525 14.847 22.3392 14.9192 22.4123C14.9899 22.4827 15.0723 22.5403 15.1625 22.5828C15.3198 22.6549 15.4982 22.6659 15.6632 22.6138C15.7346 22.5903 15.8025 22.5569 15.8647 22.5146L19.4235 20.0858C19.5318 20.0144 19.619 19.9154 19.6761 19.799C19.735 19.6818 19.7653 19.5522 19.7645 19.421C19.7637 19.2898 19.7318 19.1607 19.6715 19.0442C19.6109 18.9294 19.5217 18.8323 19.4126 18.7621L15.8523 16.4278Z" fill="white"/>
</svg>
