<svg width="32" height="30" viewBox="0 0 32 30" fill="none" xmlns="http://www.w3.org/2000/svg">
<path d="M0 4C0 2.93913 0.421427 1.92172 1.17157 1.17157C1.92172 0.421427 2.93913 0 4 0H18C19.0609 0 20.0783 0.421427 20.8284 1.17157C21.5786 1.92172 22 2.93913 22 4V12C22 13.0609 21.5786 14.0783 20.8284 14.8284C20.0783 15.5786 19.0609 16 18 16H14L8 22V16H4C2.93913 16 1.92172 15.5786 1.17157 14.8284C0.421427 14.0783 0 13.0609 0 12V4Z" fill="white"/>
<path d="M26 8V12C26 14.1217 25.1572 16.1566 23.6569 17.6569C22.1566 19.1571 20.1218 20 18 20H15.656L12.124 23.534C12.684 23.832 13.322 24 14 24H18L24 30V24H28C29.0609 24 30.0783 23.5786 30.8284 22.8284C31.5786 22.0783 32 21.0609 32 20V12C32 10.9391 31.5786 9.92172 30.8284 9.17157C30.0783 8.42143 29.0609 8 28 8H26Z" fill="white"/>
</svg>
