<svg width="27" height="27" viewBox="0 0 27 27" fill="none" xmlns="http://www.w3.org/2000/svg">
<path fill-rule="evenodd" clip-rule="evenodd" d="M27 1.3095L27.0456 -0.0455627L25.6905 -2.42144e-07L23.4816 0.0776248C20.8044 0.169835 18.1809 0.853806 15.7994 2.08041C13.418 3.30701 11.3378 5.0458 9.70819 7.17187H6.18806C5.10245 7.17184 4.05118 7.5524 3.21717 8.24736C2.38315 8.94233 1.81918 9.90769 1.62338 10.9755L0.273375 18.333L0 19.8281H4.53938L7.17188 22.4606V27L8.66531 26.7266L16.0228 25.3766C17.0909 25.1812 18.0567 24.6174 18.752 23.7833C19.4473 22.9493 19.8281 21.8978 19.8281 20.8119V17.2918C21.9542 15.6622 23.693 13.582 24.9196 11.2006C26.1462 8.81914 26.8302 6.19561 26.9224 3.51844L27 1.30781V1.3095ZM15.7747 16.8547L8.68725 20.3985L6.60319 18.3128L10.1469 11.2252C11.4026 8.71457 13.312 6.58895 15.6742 5.07228C18.0364 3.55561 20.7638 2.70402 23.5693 2.60719L24.4232 2.57681L24.3928 3.43069C24.2963 6.23647 23.4448 8.96428 21.9281 11.3268C20.4115 13.6893 18.2857 15.599 15.7747 16.8547ZM9.70312 23.9625V22.7205L16.9054 19.1177L17.2969 18.9219V20.8119C17.297 21.3056 17.124 21.7838 16.808 22.163C16.4919 22.5423 16.0528 22.7987 15.5672 22.8876L9.70312 23.9625ZM4.2795 17.2969L7.88231 10.0946L8.07638 9.70312H6.18637C5.69296 9.70335 5.21525 9.87655 4.83632 10.1926C4.4574 10.5086 4.20125 10.9475 4.11244 11.4328L3.0375 17.2969H4.2795ZM17.7188 10.125C17.7188 10.3488 17.6299 10.5634 17.4716 10.7216C17.3134 10.8799 17.0988 10.9688 16.875 10.9688C16.6512 10.9688 16.4366 10.8799 16.2784 10.7216C16.1201 10.5634 16.0312 10.3488 16.0312 10.125C16.0312 9.90122 16.1201 9.68661 16.2784 9.52838C16.4366 9.37014 16.6512 9.28125 16.875 9.28125C17.0988 9.28125 17.3134 9.37014 17.4716 9.52838C17.6299 9.68661 17.7188 9.90122 17.7188 10.125ZM20.25 10.125C20.25 11.0201 19.8944 11.8785 19.2615 12.5115C18.6285 13.1444 17.7701 13.5 16.875 13.5C15.9799 13.5 15.1215 13.1444 14.4885 12.5115C13.8556 11.8785 13.5 11.0201 13.5 10.125C13.5 9.22989 13.8556 8.37145 14.4885 7.73851C15.1215 7.10558 15.9799 6.75 16.875 6.75C17.7701 6.75 18.6285 7.10558 19.2615 7.73851C19.8944 8.37145 20.25 9.22989 20.25 10.125Z" fill="#4F4F4F" fill-opacity="0.93"/>
</svg>
