<svg width="23" height="23" viewBox="0 0 23 23" fill="none" xmlns="http://www.w3.org/2000/svg">
<path d="M11.5 0.53125C5.425 0.53125 0.53125 5.425 0.53125 11.5C0.53125 17.575 5.425 22.4688 11.5 22.4688C17.575 22.4688 22.4688 17.575 22.4688 11.5C22.4688 5.425 17.575 0.53125 11.5 0.53125ZM11.5 2.21875C16.6469 2.21875 20.7812 6.35313 20.7812 11.5C20.7812 16.6469 16.6469 20.7812 11.5 20.7812C6.35313 20.7812 2.21875 16.6469 2.21875 11.5C2.21875 6.35313 6.35313 2.21875 11.5 2.21875ZM7.45 6.4375L5.93125 10.0656L9.55937 11.5844L11.0781 7.95625L7.45 6.4375ZM11.5 8.63125L10.3188 11.5L13.1031 12.6812L13.1166 12.6517L13.1875 12.6812L14.4531 9.8125L11.5 8.63125ZM14.875 10.4031L13.9469 12.6812L16.225 13.6094L17.2375 11.3313L14.875 10.4031ZM10.0656 12.0063L9.8125 12.5125L10.7406 12.9344L8.63125 17.4062H9.22188L11.2469 13.2719L13.3563 17.4062H13.9469L12.0063 13.525L12.6812 13.7781L12.9344 13.1875L10.0656 12.0063Z" fill="#5C5C5C" fill-opacity="0.93"/>
</svg>
