<svg width="30" height="24" viewBox="0 0 30 24" fill="none" xmlns="http://www.w3.org/2000/svg">
<path d="M23.1168 4.30855C23.1037 4.43933 23.096 4.58852 23.0926 4.7503L21.2355 5.63719C20.9754 5.59456 19.6855 5.66964 17.7615 4.72027C17.2738 4.47953 16.7972 4.35166 16.3394 4.35166C15.9252 4.35224 15.517 4.451 15.1483 4.63986C14.6625 4.53475 13.9626 4.26544 13.5533 4.26641C12.6272 4.27125 10.5216 5.02542 9.93841 5.08984C9.36781 5.15233 8.78027 5.30927 8.18884 5.5592C7.11402 5.2463 5.76648 4.73528 5.04477 4.45289L0 0.776001V12.5996L3.70741 14.3637C3.76117 14.3007 3.82269 14.2038 3.88953 14.0837L4.00433 14.137C4.06052 14.2823 4.12252 14.4271 4.19033 14.571C3.78345 15.2559 3.73502 16.0275 4.06003 16.6984C4.33855 17.2724 4.85731 17.6754 5.43517 17.7882C5.46666 18.1457 5.58678 18.4915 5.78925 18.7914C6.15253 19.3276 6.72991 19.6477 7.33489 19.6477C7.38962 19.6477 7.44436 19.6453 7.49861 19.639C7.58483 19.872 7.71125 20.089 7.87545 20.2769C8.24067 20.6969 8.75217 20.9376 9.2782 20.9376C9.31695 20.9376 9.35473 20.9367 9.393 20.9338C9.45984 21.1876 9.57367 21.4278 9.73255 21.6419C10.0983 22.136 10.6625 22.43 11.2428 22.43C11.6032 22.43 11.9476 22.3195 12.2513 22.1127C12.8384 22.4896 13.3489 22.7545 13.8018 22.9173C14.029 23.0098 14.2653 23.0573 14.5065 23.0573C15.0771 23.0573 15.6308 22.7908 16.026 22.3249C16.1728 22.1515 16.292 21.9577 16.3791 21.7504C16.5499 21.8021 16.7273 21.8285 16.9057 21.8289C17.5121 21.8289 18.087 21.532 18.4847 21.0127C18.6736 20.7666 18.8104 20.4846 18.8868 20.1839C18.9284 20.1868 18.9696 20.1883 19.0107 20.1883C19.7116 20.1883 20.3825 19.7771 20.7598 19.1149C20.9576 18.7705 21.0626 18.3806 21.0645 17.9834C21.7572 17.8803 22.367 17.3876 22.6639 16.6693C22.9565 15.9616 22.877 15.1808 22.4687 14.5298L24.3553 13.4666C24.4038 13.6323 24.4513 13.7849 24.4973 13.9089L29.0625 11.4797V1.57134L23.1168 4.30855ZM23.1163 5.77959C23.1463 6.30369 23.2011 6.89608 23.2718 7.51463C22.8843 6.86363 22.3951 6.5667 21.7877 6.41897L23.1163 5.77959ZM20.584 17.2864C19.5436 16.9285 17.3779 14.3826 17.3779 14.3826H17.4205C17.6409 14.3671 18.1171 14.1351 18.6513 14.246C17.8124 13.5252 16.8897 14.1351 16.2614 13.7616C16.4072 14.229 17.1081 14.3763 17.2878 14.3821L19.3629 16.7952C20.3026 17.8875 19.6482 19.2389 18.7061 19.454C18.074 19.1464 16.289 17.0234 16.289 17.0234C16.3501 17.0123 16.7119 16.8989 17.0805 16.9473C16.2295 16.3109 15.2646 16.8631 14.6921 16.4635C15.0166 17.2651 16.0856 17.0597 16.1975 17.0403L17.3077 18.4576C18.196 19.5911 17.498 20.9003 16.5545 21.0776C15.718 20.7836 15.175 19.7373 15.175 19.7373C15.2593 19.7238 15.5412 19.5983 15.9422 19.6565C15.2287 19.0311 14.398 19.5983 13.8987 19.2423C14.2072 19.9146 14.9764 19.7616 15.0195 19.7567C15.7887 20.9681 14.9909 22.2314 14.0377 22.2692H14.0367L14.0357 22.2697C13.4632 22.1704 12.8635 21.7126 12.1864 21.2428C12.4189 20.9851 12.6243 20.5322 12.6243 20.5322C13.3043 19.3009 12.4218 18.212 11.5107 18.3055C12.2498 18.5075 12.804 19.4511 12.2271 20.4988L11.9738 20.925C11.6986 21.4264 11.269 21.7291 10.9532 21.6918C10.4669 21.6327 9.78147 20.9226 10.0697 19.9209C10.1811 19.8192 11.2554 18.1757 11.2554 18.1757C11.9941 16.9861 11.1648 15.8473 10.2513 15.8861C10.9788 16.1317 11.4889 17.1072 10.8616 18.1195L9.9883 19.4811C9.69041 19.9626 9.30484 20.2353 8.9372 20.1849C8.36661 20.1074 7.96652 19.4114 8.05806 18.693C8.05322 18.6974 8.68678 17.9888 8.68678 17.9888C9.52863 16.8887 8.80788 15.6604 7.8958 15.5959C8.59669 15.9224 9.01422 16.9512 8.2988 17.8875L7.98977 18.2663C7.6507 18.711 7.24238 18.9372 6.88491 18.848C6.26103 18.6916 5.9365 17.5242 6.23148 17.206C6.4635 16.9556 7.11498 16.1627 7.11498 16.1627C7.95634 15.0622 7.23656 13.8343 6.32352 13.7689C7.02489 14.0963 7.44242 15.1251 6.727 16.0619L6.41797 16.4397C6.07697 16.8883 5.66719 17.1135 5.3073 17.0219C4.55748 16.8321 4.18306 15.6744 4.90042 14.7347C4.90042 14.7347 4.65678 13.9607 4.54683 13.6299L4.18548 13.4623C5.03266 11.4884 6.31238 7.13197 6.37147 5.68466C6.99534 5.90699 8.64222 6.3807 8.81708 6.38167L8.81611 6.38264C10.5889 5.82561 12.447 5.88713 13.2946 5.55969C13.5693 5.45506 14.1157 5.44828 14.695 5.77959C14.3331 6.09686 13.9912 6.47467 13.6361 6.82681C12.7875 7.66914 9.63228 8.98277 10.2407 10.3642C10.7657 11.5563 12.2445 12.7759 14.725 10.8612L16.12 10.6694L18.2895 11.7398L21.0698 14.5952C22.0613 15.6114 21.5 16.9909 20.584 17.2864ZM21.2815 14.1404C20.9628 13.5446 19.9693 12.5676 19.0316 11.7689L19.0258 11.7631C19.4583 11.7805 19.9122 11.084 20.4988 11.0302C20.089 10.7173 19.4099 11.0787 19.1982 11.1358C18.0313 11.4497 16.2178 9.98155 16.2178 9.98155L14.4828 10.2315C14.4828 10.2315 12.4194 12.7498 10.681 10.6752C9.73691 9.54852 13.158 8.07699 14.0009 7.2395C15.0805 6.16661 16.0425 4.85395 17.8187 5.74811C19.2941 6.49211 19.8754 6.44609 21.8545 6.79049C22.4445 6.89366 22.8533 7.16394 23.2917 7.69142C23.498 9.42742 23.8317 11.3528 24.1519 12.6926C23.9867 12.8316 22.5709 13.7839 21.2815 14.1404Z" fill="white"/>
</svg>
