<svg width="31" height="25" viewBox="0 0 31 25" fill="none" xmlns="http://www.w3.org/2000/svg">
<path d="M30.3584 12.2952L16.2735 0.273787C16.172 0.186997 16.0516 0.118142 15.919 0.0711619C15.7864 0.024182 15.6442 0 15.5006 0C15.3571 0 15.2149 0.024182 15.0823 0.0711619C14.9497 0.118142 14.8292 0.186997 14.7278 0.273787L0.642868 12.2952C0.232527 12.6457 0 13.1217 0 13.6182C0 14.6492 0.981399 15.4874 2.18849 15.4874H3.67255V24.0654C3.67255 24.5823 4.16154 25 4.7668 25H13.3122V18.4577H17.142V25H26.2345C26.8397 25 27.3287 24.5823 27.3287 24.0654V15.4874H28.8128C29.3941 15.4874 29.9515 15.2918 30.3618 14.9384C31.2133 14.2082 31.2133 13.0253 30.3584 12.2952Z" fill="white"/>
</svg>
