<svg width="31" height="32" viewBox="0 0 31 32" fill="none" xmlns="http://www.w3.org/2000/svg">
<path d="M10.3336 0.416626H26.8669C27.9631 0.416626 29.0145 0.824884 29.7896 1.55159C30.5648 2.27829 31.0002 3.26391 31.0002 4.29163V23.6666C31.0002 24.6943 30.5648 25.68 29.7896 26.4067C29.0145 27.1334 27.9631 27.5416 26.8669 27.5416C26.8669 28.5693 26.4314 29.555 25.6563 30.2817C24.8811 31.0084 23.8298 31.4166 22.7336 31.4166H6.20023C5.104 31.4166 4.05267 31.0084 3.27752 30.2817C2.50237 29.555 2.06689 28.5693 2.06689 27.5416H4.13356C4.13356 28.0555 4.3513 28.5483 4.73887 28.9116C5.12645 29.275 5.65211 29.4791 6.20023 29.4791H22.7336C23.2817 29.4791 23.8073 29.275 24.1949 28.9116C24.5825 28.5483 24.8002 28.0555 24.8002 27.5416V8.16663C24.8002 7.65277 24.5825 7.15996 24.1949 6.79661C23.8073 6.43325 23.2817 6.22913 22.7336 6.22913H6.20023C5.65211 6.22913 5.12645 6.43325 4.73887 6.79661C4.3513 7.15996 4.13356 7.65277 4.13356 8.16663H2.06689C2.06689 7.13891 2.50237 6.15329 3.27752 5.42659C4.05267 4.69988 5.104 4.29163 6.20023 4.29163H22.7336C23.8298 4.29163 24.8811 4.69988 25.6563 5.42659C26.4314 6.15329 26.8669 7.13891 26.8669 8.16663V25.6041C27.415 25.6041 27.9407 25.4 28.3282 25.0366C28.7158 24.6733 28.9336 24.1805 28.9336 23.6666V4.29163C28.9336 3.77777 28.7158 3.28496 28.3282 2.92161C27.9407 2.55825 27.415 2.35413 26.8669 2.35413H10.3336C9.78545 2.35413 9.25978 2.55825 8.87221 2.92161C8.48463 3.28496 8.26689 3.77777 8.26689 4.29163H6.20023C6.20023 3.26391 6.6357 2.27829 7.41085 1.55159C8.186 0.824884 9.23733 0.416626 10.3336 0.416626V0.416626Z" fill="white"/>
<path d="M2.06667 12.0416V11.0729C2.06667 10.8159 2.17554 10.5695 2.36932 10.3879C2.56311 10.2062 2.82594 10.1041 3.1 10.1041C3.37406 10.1041 3.63689 10.2062 3.83068 10.3879C4.02446 10.5695 4.13333 10.8159 4.13333 11.0729V12.0416H5.16667C5.44072 12.0416 5.70356 12.1437 5.89734 12.3254C6.09113 12.507 6.2 12.7534 6.2 13.0104C6.2 13.2673 6.09113 13.5137 5.89734 13.6954C5.70356 13.8771 5.44072 13.9791 5.16667 13.9791H1.03333C0.759276 13.9791 0.496444 13.8771 0.302656 13.6954C0.108869 13.5137 0 13.2673 0 13.0104C0 12.7534 0.108869 12.507 0.302656 12.3254C0.496444 12.1437 0.759276 12.0416 1.03333 12.0416H2.06667ZM2.06667 17.8541V16.8854C2.06667 16.6284 2.17554 16.382 2.36932 16.2004C2.56311 16.0187 2.82594 15.9166 3.1 15.9166C3.37406 15.9166 3.63689 16.0187 3.83068 16.2004C4.02446 16.382 4.13333 16.6284 4.13333 16.8854V17.8541H5.16667C5.44072 17.8541 5.70356 17.9562 5.89734 18.1379C6.09113 18.3195 6.2 18.5659 6.2 18.8229C6.2 19.0798 6.09113 19.3262 5.89734 19.5079C5.70356 19.6896 5.44072 19.7916 5.16667 19.7916H1.03333C0.759276 19.7916 0.496444 19.6896 0.302656 19.5079C0.108869 19.3262 0 19.0798 0 18.8229C0 18.5659 0.108869 18.3195 0.302656 18.1379C0.496444 17.9562 0.759276 17.8541 1.03333 17.8541H2.06667ZM2.06667 22.6979V23.6666H1.03333C0.759276 23.6666 0.496444 23.7687 0.302656 23.9504C0.108869 24.132 0 24.3784 0 24.6354C0 24.8923 0.108869 25.1387 0.302656 25.3204C0.496444 25.5021 0.759276 25.6041 1.03333 25.6041H5.16667C5.44072 25.6041 5.70356 25.5021 5.89734 25.3204C6.09113 25.1387 6.2 24.8923 6.2 24.6354C6.2 24.3784 6.09113 24.132 5.89734 23.9504C5.70356 23.7687 5.44072 23.6666 5.16667 23.6666H4.13333V22.6979C4.13333 22.4409 4.02446 22.1945 3.83068 22.0129C3.63689 21.8312 3.37406 21.7291 3.1 21.7291C2.82594 21.7291 2.56311 21.8312 2.36932 22.0129C2.17554 22.1945 2.06667 22.4409 2.06667 22.6979Z" fill="white"/>
</svg>
