<svg width="20" height="23" viewBox="0 0 20 23" fill="none" xmlns="http://www.w3.org/2000/svg">
<path d="M19.5113 4.63018C19.4403 4.57315 19.3551 4.53651 19.2649 4.52418C19.1747 4.51184 19.0828 4.52428 18.9991 4.56015L10.8485 8.08955C10.4941 8.24396 10.0503 8.31736 9.59467 8.31736C8.95933 8.3199 8.30205 8.17224 7.84389 7.97143C7.70428 7.91262 7.57133 7.83908 7.44733 7.75205C7.48108 7.73518 7.52327 7.71662 7.56967 7.69805L14.9829 4.48843L16.0882 4.96093V3.57971C16.0898 3.48121 16.0692 3.38361 16.0279 3.29419C15.9865 3.20478 15.9255 3.12586 15.8494 3.06333C15.7787 3.00637 15.6938 2.96976 15.6039 2.95742C15.5139 2.94508 15.4223 2.95749 15.3389 2.9933L7.1883 6.52271C6.93686 6.62396 6.72086 6.74883 6.53861 6.93024C6.32757 7.13844 6.20771 7.42185 6.20533 7.7183C6.20533 7.72674 6.20786 7.74108 6.20786 7.74108V20.1695L6.20617 20.1864C6.20617 20.1898 6.2087 20.1915 6.2087 20.1948V20.2083H6.21039C6.22727 20.6429 6.44664 20.9196 6.65589 21.1154C7.31402 21.6959 8.41933 22.0207 9.59552 22.0376C10.1524 22.0376 10.7177 21.9532 11.2408 21.7288L19.394 18.1985C19.6091 18.1057 19.75 17.8754 19.75 17.6146V5.14655C19.7513 5.04811 19.7306 4.95063 19.6893 4.86127C19.6479 4.77191 19.5871 4.69295 19.5113 4.63018ZM14.3416 2.26768C14.3273 2.08205 14.2505 1.90486 14.1138 1.79855C14.0428 1.74153 13.9576 1.70489 13.8674 1.69255C13.7772 1.68022 13.6853 1.69265 13.6016 1.72852L5.45102 5.25624C5.09664 5.4098 4.65199 5.48405 4.1972 5.48405C3.56186 5.48574 2.90458 5.33808 2.44642 5.13643C2.30666 5.0786 2.17368 5.0056 2.04986 4.91874C2.08361 4.90186 2.1258 4.8833 2.17221 4.86474L9.58624 1.65511L10.6915 2.12762V0.748084C10.6931 0.649526 10.6723 0.551902 10.6308 0.462491C10.5893 0.373081 10.5282 0.294192 10.4519 0.231709C10.3811 0.17476 10.296 0.138157 10.206 0.125821C10.1159 0.113485 10.0242 0.12588 9.94061 0.161677L1.78999 3.69193C1.53855 3.79318 1.32339 3.91721 1.1403 4.09946C0.929565 4.3078 0.81002 4.59119 0.807861 4.88752C0.807861 4.89765 0.810392 4.91115 0.810392 4.91115V17.3792H0.81208C0.828955 17.8138 1.04833 18.0905 1.25758 18.2863C1.9157 18.8668 3.02102 19.1908 4.19805 19.2076C4.51769 19.2058 4.83631 19.1713 5.14895 19.1047V7.74024C5.14052 7.14961 5.37677 6.58261 5.79189 6.17424C6.07949 5.89526 6.42121 5.67817 6.79595 5.53637L14.3416 2.26768Z" fill="#5C5C5C" fill-opacity="0.93"/>
</svg>
