<svg width="25" height="25" viewBox="0 0 25 25" fill="none" xmlns="http://www.w3.org/2000/svg">
<path d="M9.125 1.25H2.375C2.07663 1.25 1.79048 1.36853 1.5795 1.5795C1.36853 1.79048 1.25 2.07663 1.25 2.375V9.125C1.25 9.42337 1.36853 9.70952 1.5795 9.92049C1.79048 10.1315 2.07663 10.25 2.375 10.25H9.125C9.42337 10.25 9.70952 10.1315 9.92049 9.92049C10.1315 9.70952 10.25 9.42337 10.25 9.125V2.375C10.25 2.07663 10.1315 1.79048 9.92049 1.5795C9.70952 1.36853 9.42337 1.25 9.125 1.25V1.25ZM9.125 14.75H2.375C2.07663 14.75 1.79048 14.8685 1.5795 15.0795C1.36853 15.2905 1.25 15.5766 1.25 15.875V22.625C1.25 22.9234 1.36853 23.2095 1.5795 23.4205C1.79048 23.6315 2.07663 23.75 2.375 23.75H9.125C9.42337 23.75 9.70952 23.6315 9.92049 23.4205C10.1315 23.2095 10.25 22.9234 10.25 22.625V15.875C10.25 15.5766 10.1315 15.2905 9.92049 15.0795C9.70952 14.8685 9.42337 14.75 9.125 14.75ZM22.625 1.25H15.875C15.5766 1.25 15.2905 1.36853 15.0795 1.5795C14.8685 1.79048 14.75 2.07663 14.75 2.375V9.125C14.75 9.42337 14.8685 9.70952 15.0795 9.92049C15.2905 10.1315 15.5766 10.25 15.875 10.25H22.625C22.9234 10.25 23.2095 10.1315 23.4205 9.92049C23.6315 9.70952 23.75 9.42337 23.75 9.125V2.375C23.75 2.07663 23.6315 1.79048 23.4205 1.5795C23.2095 1.36853 22.9234 1.25 22.625 1.25V1.25Z" stroke="#5C5C5C" stroke-opacity="0.93" stroke-width="2" stroke-linejoin="round"/>
<path d="M14.75 14.75H23.75M19.25 19.25H23.75M14.75 23.75H23.75" stroke="#5C5C5C" stroke-opacity="0.93" stroke-width="2" stroke-linecap="round" stroke-linejoin="round"/>
</svg>
