<svg width="27" height="26" viewBox="0 0 27 26" fill="none" xmlns="http://www.w3.org/2000/svg">
<path fill-rule="evenodd" clip-rule="evenodd" d="M13.4997 24.5417C19.9199 24.5417 25.1247 19.3369 25.1247 12.9167C25.1247 6.49644 19.9199 1.29167 13.4997 1.29167C7.07945 1.29167 1.87467 6.49644 1.87467 12.9167C1.87467 19.3369 7.07945 24.5417 13.4997 24.5417ZM13.4997 25.8333C20.6336 25.8333 26.4163 20.0505 26.4163 12.9167C26.4163 5.78279 20.6336 0 13.4997 0C6.3658 0 0.583008 5.78279 0.583008 12.9167C0.583008 20.0505 6.3658 25.8333 13.4997 25.8333Z" fill="white"/>
<path d="M5.74951 20.4277C5.74951 19.7606 6.2481 19.1967 6.91201 19.1231C11.8946 18.5716 15.127 18.6213 20.0986 19.1354C20.3469 19.1615 20.5822 19.2593 20.7758 19.4169C20.9694 19.5745 21.1129 19.785 21.1888 20.0228C21.2647 20.2607 21.2697 20.5154 21.2032 20.756C21.1366 20.9966 21.0015 21.2127 20.8142 21.3777C14.9468 26.4921 11.5937 26.4217 6.16285 21.3829C5.89805 21.1375 5.74951 20.7887 5.74951 20.4283V20.4277Z" fill="white"/>
<path fill-rule="evenodd" clip-rule="evenodd" d="M20.0324 19.7774C15.1002 19.2671 11.9143 19.2194 6.98274 19.7651C6.8204 19.784 6.67075 19.8621 6.56243 19.9845C6.45411 20.1069 6.39473 20.2649 6.39567 20.4284C6.39567 20.6131 6.47253 20.7881 6.60234 20.9095C9.29417 23.4063 11.3337 24.5346 13.3274 24.5417C15.3282 24.5488 17.4775 23.4295 20.3902 20.8914C20.4828 20.8091 20.5494 20.7016 20.582 20.5821C20.6146 20.4626 20.6118 20.3362 20.5739 20.2182C20.536 20.1003 20.4646 19.9959 20.3685 19.9177C20.2724 19.8396 20.1556 19.791 20.0324 19.778V19.7774ZM6.8413 18.4812C11.8762 17.9238 15.1558 17.9742 20.1661 18.4928C20.5396 18.5318 20.8936 18.6788 21.1848 18.9159C21.4761 19.153 21.6918 19.4698 21.8057 19.8277C21.9196 20.1855 21.9267 20.5687 21.8262 20.9305C21.7256 21.2923 21.5217 21.617 21.2395 21.8647C18.2848 24.4403 15.8242 25.843 13.3235 25.8333C10.8158 25.8243 8.46363 24.3976 5.72465 21.8563C5.52855 21.6736 5.37222 21.4525 5.26543 21.2067C5.15864 20.9609 5.10369 20.6957 5.10401 20.4277C5.10307 19.9462 5.27981 19.4813 5.60037 19.122C5.92094 18.7627 6.36279 18.5343 6.8413 18.4805V18.4812Z" fill="white"/>
<path d="M18.6663 10.3333C18.6663 11.7036 18.122 13.0178 17.1531 13.9867C16.1841 14.9557 14.87 15.5 13.4997 15.5C12.1294 15.5 10.8152 14.9557 9.84629 13.9867C8.87735 13.0178 8.33301 11.7036 8.33301 10.3333C8.33301 8.96305 8.87735 7.64889 9.84629 6.67995C10.8152 5.71102 12.1294 5.16667 13.4997 5.16667C14.87 5.16667 16.1841 5.71102 17.1531 6.67995C18.122 7.64889 18.6663 8.96305 18.6663 10.3333Z" fill="white"/>
<path fill-rule="evenodd" clip-rule="evenodd" d="M13.4997 14.2083C14.5274 14.2083 15.513 13.8001 16.2397 13.0734C16.9664 12.3467 17.3747 11.3611 17.3747 10.3333C17.3747 9.30562 16.9664 8.32 16.2397 7.5933C15.513 6.8666 14.5274 6.45834 13.4997 6.45834C12.472 6.45834 11.4863 6.8666 10.7596 7.5933C10.0329 8.32 9.62467 9.30562 9.62467 10.3333C9.62467 11.3611 10.0329 12.3467 10.7596 13.0734C11.4863 13.8001 12.472 14.2083 13.4997 14.2083ZM13.4997 15.5C14.87 15.5 16.1841 14.9557 17.1531 13.9867C18.122 13.0178 18.6663 11.7036 18.6663 10.3333C18.6663 8.96305 18.122 7.64889 17.1531 6.67995C16.1841 5.71102 14.87 5.16667 13.4997 5.16667C12.1294 5.16667 10.8152 5.71102 9.84629 6.67995C8.87735 7.64889 8.33301 8.96305 8.33301 10.3333C8.33301 11.7036 8.87735 13.0178 9.84629 13.9867C10.8152 14.9557 12.1294 15.5 13.4997 15.5Z" fill="white"/>
</svg>
